<?xml version="1.0" encoding="UTF-8"?>
<svg id="Layer_2" data-name="Layer 2" xmlns="http://www.w3.org/2000/svg" viewBox="0 0 211.47 83.57">
  <defs>
    <style>
      .cls-1 {
        fill: #231f20;
      }

      .cls-1, .cls-2, .cls-3 {
        stroke-width: 0px;
      }

      .cls-4 {
        fill: none;
        stroke: #231f20;
        stroke-width: 1.64px;
      }

      .cls-2 {
        fill: #da1c5c;
      }

      .cls-3 {
        fill: #fff;
      }
    </style>
  </defs>
  <g id="Layer_2-2" data-name="Layer 2">
    <g>
      <g>
        <path class="cls-1" d="M47.26,71.31l.89,6.5-.46-.2-3.32.72-8.96-.28-5.08-6.35-1.38.31-3.23,7.29-7.51,3.39-7.99-2.26-5.72-5.45-3.67-9.07.83-10.27,6.31-7.15,10.64-1.47,7.73-2.8,8.63-.77-.61,9.54,1.9,8.65,3.42,6.95,6.63,1.24.6,1.06.35.41ZM9.48,38.41l-1.82-1.19-.83-2.07.65-3.44,3.14-2.57,3.37,2.21,1.82,2.84.24,2.57-1.51,2.37h-2.86s-2.2-.74-2.2-.74ZM26.17,71.49l1.08-8.88-1.23-10.25-6.75.72-6.34,4.17-2.97,7.7,3.27,7.74,6.57,1.58,6.38-2.77ZM21.86,37.1l-1.82-1.19-.83-2.07.65-3.44,3.14-2.57,3.37,2.21,1.82,2.84.24,2.57-1.51,2.37h-2.86s-2.2-.74-2.2-.74Z"/>
        <path class="cls-1" d="M78.4,33.5l9.39-2.06,9.46-2.06.46,3.62-9.48,2.82-9.75.71-.08-3.04Z"/>
        <path class="cls-1" d="M113.47,36.48l.74,8.1.96,8.8,1.3,8.77,1.62,9.16-14.86.3-8.46-.83-6.3-4.81.36.1-4.5,6.19-6.78,2.71-8.39-.39-6.22-5.42,1.07-.17-5.06,5.19-5.76,4.37-5.32.72-.32-1.42-1.67-6.64,1.06-.97,5.33-1.04,6.83-2.2,2.38-8.04-1.44-13.04,8.02-.98,3,13,1.04,8.51,6.48.21,5.26-2.41,2.04-7.88-.87-13.06,8.22-1.24.71,13.45,4.59,6.9,6.83,2.61,2.88-.61-1.86-9.31-1.53-9.15.19-8.62,8.41-.87Z"/>
        <path class="cls-1" d="M127.1,51.59l-1.18-9.14-1-9.16-1.33-9.13-1.73-9.44,9.58-.04.88,8.55,1.66,9.09,1.35,9.12-.04,9.27,3.3,8.16,7.57,1.08.66-.55,1.73.86-1.12,6.95.25,1.31-2.61.44-9.18-2.72-7.29-5.38-1.51-9.27Z"/>
        <path class="cls-1" d="M144.71,5.1l9.39-2.05,9.46-2.06.46,3.62-9.48,2.82-9.75.71-.08-3.04Z"/>
        <path class="cls-1" d="M161.25,31.41l.74,8.1.96,8.8,1.3,8.77,1.7,9.09-9.49-.2-8.97,1.2-1.22.37-1.11-6.92,1.64.07,8.72-1.08-1.7-9.53-1.47-9.15-.75-9.72,9.65.2ZM153.89,23.01l-1.93-1.26-.88-2.17.04-2.51,1.09-2.67,3,.25,2.46.12,2.47,1.09,1.4,2.6-1.41,2.53-1.6,1.85-2.26,1.72-2.38-1.56Z"/>
        <path class="cls-1" d="M177.67,17.81l9.39-2.06,9.46-2.06.46,3.62-9.48,2.82-9.75.71-.08-3.04Z"/>
        <path class="cls-1" d="M197.08,28.77l6.67,5.57,3.24,9.84,1.49,10.6.66,9.97-5.12,8.37-7.87,5.72-9.69,2.91-4.79.66.08-7.7,3.61-.04,9.84-4.27,3.64-7.5-4.45.58-7.94-1.91-8.08-1.12-4.98-6.22-.04-7.85.28-9.52,5.32-7.46,9.03-3.82,9.1,3.19ZM184.89,54.04l8.7,1.91,6.11-1.05-1.3-9.81-3.68-8.23-5.91-3.51-4.28,2.17-1.89,4.45-.03,5.42,2.28,8.65Z"/>
      </g>
      <g>
        <path class="cls-3" d="M47.26,71.31l.89,6.5-.46-.2-3.32.72-8.96-.28-5.08-6.35-1.38.31-3.23,7.29-7.51,3.39-7.99-2.26-5.72-5.45-3.67-9.07.83-10.27,6.31-7.15,10.64-1.47,7.73-2.8,8.63-.77-.61,9.54,1.9,8.65,3.42,6.95,6.63,1.24.6,1.06.35.41ZM9.48,38.41l-1.82-1.19-.83-2.07.65-3.44,3.14-2.57,3.37,2.21,1.82,2.84.24,2.57-1.51,2.37h-2.86s-2.2-.74-2.2-.74ZM26.17,71.49l1.08-8.88-1.23-10.25-6.75.72-6.34,4.17-2.97,7.7,3.27,7.74,6.57,1.58,6.38-2.77ZM21.86,37.1l-1.82-1.19-.83-2.07.65-3.44,3.14-2.57,3.37,2.21,1.82,2.84.24,2.57-1.51,2.37h-2.86s-2.2-.74-2.2-.74Z"/>
        <path class="cls-3" d="M78.4,33.5l9.39-2.06,9.46-2.06.46,3.62-9.48,2.82-9.75.71-.08-3.04Z"/>
        <path class="cls-3" d="M113.47,36.48l.74,8.1.96,8.8,1.3,8.77,1.62,9.16-14.86.3-8.46-.83-6.3-4.81.36.1-4.5,6.19-6.78,2.71-8.39-.39-6.22-5.42,1.07-.17-5.06,5.19-5.76,4.37-5.32.72-.32-1.42-1.67-6.64,1.06-.97,5.33-1.04,6.83-2.2,2.38-8.04-1.44-13.04,8.02-.98,3,13,1.04,8.51,6.48.21,5.26-2.41,2.04-7.88-.87-13.06,8.22-1.24.71,13.45,4.59,6.9,6.83,2.61,2.88-.61-1.86-9.31-1.53-9.15.19-8.62,8.41-.87Z"/>
        <path class="cls-3" d="M127.1,51.59l-1.18-9.14-1-9.16-1.33-9.13-1.73-9.44,9.58-.04.88,8.55,1.66,9.09,1.35,9.12-.04,9.27,3.3,8.16,7.57,1.08.66-.55,1.73.86-1.12,6.95.25,1.31-2.61.44-9.18-2.72-7.29-5.38-1.51-9.27Z"/>
        <path class="cls-3" d="M144.71,5.1l9.39-2.05,9.46-2.06.46,3.62-9.48,2.82-9.75.71-.08-3.04Z"/>
        <path class="cls-3" d="M161.25,31.41l.74,8.1.96,8.8,1.3,8.77,1.7,9.09-9.49-.2-8.97,1.2-1.22.37-1.11-6.92,1.64.07,8.72-1.08-1.7-9.53-1.47-9.15-.75-9.72,9.65.2ZM153.89,23.01l-1.93-1.26-.88-2.17.04-2.51,1.09-2.67,3,.25,2.46.12,2.47,1.09,1.4,2.6-1.41,2.53-1.6,1.85-2.26,1.72-2.38-1.56Z"/>
        <path class="cls-3" d="M177.67,17.81l9.39-2.06,9.46-2.06.46,3.62-9.48,2.82-9.75.71-.08-3.04Z"/>
        <path class="cls-3" d="M197.08,28.77l6.67,5.57,3.24,9.84,1.49,10.6.66,9.97-5.12,8.37-7.87,5.72-9.69,2.91-4.79.66.08-7.7,3.61-.04,9.84-4.27,3.64-7.5-4.45.58-7.94-1.91-8.08-1.12-4.98-6.22-.04-7.85.28-9.52,5.32-7.46,9.03-3.82,9.1,3.19ZM184.89,54.04l8.7,1.91,6.11-1.05-1.3-9.81-3.68-8.23-5.91-3.51-4.28,2.17-1.89,4.45-.03,5.42,2.28,8.65Z"/>
      </g>
      <g>
        <path class="cls-2" d="M49.59,71.54l.89,6.5-.46-.2-3.32.72-8.96-.28-5.08-6.35-1.38.31-3.23,7.29-7.51,3.39-7.99-2.26-5.72-5.45-3.67-9.07.83-10.27,6.31-7.15,10.64-1.47,7.73-2.8,8.63-.77-.61,9.54,1.9,8.65,3.42,6.95,6.63,1.24.6,1.06.35.41ZM11.81,38.64l-1.82-1.19-.83-2.07.65-3.44,3.14-2.57,3.37,2.21,1.82,2.84.24,2.57-1.51,2.37h-2.86s-2.2-.74-2.2-.74ZM28.49,71.72l1.08-8.88-1.23-10.25-6.75.72-6.34,4.17-2.97,7.7,3.27,7.74,6.57,1.58,6.38-2.77ZM24.19,37.33l-1.82-1.19-.83-2.07.65-3.44,3.14-2.57,3.37,2.21,1.82,2.84.24,2.57-1.51,2.37h-2.86s-2.2-.74-2.2-.74Z"/>
        <path class="cls-2" d="M80.73,33.73l9.39-2.06,9.46-2.06.46,3.62-9.48,2.82-9.75.71-.08-3.04Z"/>
        <path class="cls-2" d="M115.8,36.72l.74,8.1.96,8.8,1.3,8.77,1.62,9.16-14.86.3-8.46-.83-6.3-4.81.36.1-4.5,6.19-6.78,2.71-8.39-.39-6.22-5.42,1.07-.17-5.06,5.19-5.76,4.37-5.32.72-.32-1.42-1.67-6.64,1.06-.97,5.33-1.04,6.83-2.2,2.38-8.04-1.44-13.04,8.02-.98,3,13,1.04,8.51,6.48.21,5.26-2.41,2.04-7.88-.87-13.06,8.22-1.24.71,13.45,4.59,6.9,6.83,2.61,2.88-.61-1.86-9.31-1.53-9.15.19-8.62,8.41-.87Z"/>
        <path class="cls-2" d="M129.43,51.82l-1.18-9.14-1-9.16-1.33-9.13-1.73-9.44,9.58-.04.88,8.55,1.66,9.09,1.35,9.12-.04,9.27,3.3,8.16,7.57,1.08.66-.55,1.73.86-1.12,6.95.25,1.31-2.61.44-9.18-2.72-7.29-5.38-1.51-9.27Z"/>
        <path class="cls-2" d="M147.04,5.34l9.39-2.05,9.46-2.06.46,3.62-9.48,2.82-9.75.71-.08-3.04Z"/>
        <path class="cls-2" d="M163.58,31.65l.74,8.1.96,8.8,1.3,8.77,1.7,9.09-9.49-.2-8.97,1.2-1.22.37-1.11-6.92,1.64.07,8.72-1.08-1.7-9.53-1.47-9.15-.75-9.72,9.65.2ZM156.22,23.24l-1.93-1.26-.88-2.17.04-2.51,1.09-2.67,3,.25,2.46.12,2.47,1.09,1.4,2.6-1.41,2.53-1.6,1.85-2.26,1.72-2.38-1.56Z"/>
        <path class="cls-2" d="M180,18.05l9.39-2.06,9.46-2.06.46,3.62-9.48,2.82-9.75.71-.08-3.04Z"/>
        <path class="cls-2" d="M199.41,29l6.67,5.57,3.24,9.84,1.49,10.6.66,9.97-5.12,8.37-7.87,5.72-9.69,2.91-4.79.66.08-7.7,3.61-.04,9.84-4.27,3.64-7.5-4.45.58-7.94-1.91-8.08-1.12-4.98-6.22-.04-7.85.28-9.52,5.32-7.46,9.03-3.82,9.1,3.19ZM187.21,54.28l8.7,1.91,6.11-1.05-1.3-9.81-3.68-8.23-5.91-3.51-4.28,2.17-1.89,4.45-.03,5.42,2.28,8.65Z"/>
      </g>
      <g>
        <polygon class="cls-4" points="9.48 38.41 11.68 39.15 14.54 39.15 16.05 36.78 15.81 34.21 13.99 31.37 10.62 29.15 7.48 31.72 6.83 35.16 7.66 37.23 9.48 38.41"/>
        <polygon class="cls-4" points="21.86 37.1 24.06 37.84 26.92 37.83 28.43 35.46 28.19 32.89 26.37 30.05 23 27.84 19.86 30.41 19.21 33.85 20.04 35.91 21.86 37.1"/>
        <polygon class="cls-4" points="88.23 35.83 97.71 33.01 97.25 29.38 87.79 31.44 78.4 33.5 78.48 36.53 88.23 35.83"/>
        <path class="cls-4" d="M115.17,53.38l-.96-8.8-.74-8.1-8.41.87-.19,8.62,1.53,9.15,1.86,9.31-2.88.61-6.83-2.61-4.59-6.9-.71-13.45-8.22,1.24.87,13.06-2.04,7.88-5.26,2.41-6.48-.21-1.04-8.51-3-13-8.02.98,1.44,13.04-2.38,8.04-6.83,2.2-5.33,1.04-.26.24-.37-.65-6.63-1.24-3.42-6.95-1.9-8.65.61-9.54-8.63.77-7.73,2.8-10.64,1.47-6.31,7.15-.83,10.27,3.67,9.07,5.72,5.45,7.99,2.26,7.51-3.39,3.23-7.29,1.38-.31,5.08,6.35,8.96.28,3.13-.68.05.2.32,1.42,5.32-.72,5.76-4.37,4.48-4.6,5.73,4.99,8.39.39,6.78-2.71,4.41-6.07,6.02,4.6,8.46.83,14.86-.3-1.62-9.16-1.3-8.77ZM26.17,71.49l-6.38,2.77-6.57-1.58-3.27-7.74,2.97-7.7,6.34-4.17,6.75-.72,1.23,10.25-1.08,8.88Z"/>
        <polygon class="cls-4" points="154.54 7.44 164.02 4.62 163.56 .99 154.1 3.05 144.71 5.1 144.79 8.14 154.54 7.44"/>
        <polygon class="cls-4" points="155.22 14.66 152.22 14.4 151.12 17.07 151.08 19.58 151.96 21.75 153.89 23.01 156.27 24.57 158.53 22.85 160.14 21 161.54 18.47 160.14 15.87 157.68 14.78 155.22 14.66"/>
        <polygon class="cls-4" points="162.95 48.31 161.99 39.51 161.25 31.41 151.6 31.21 152.35 40.93 153.82 50.08 155.52 59.61 148.51 60.48 148.55 60.27 146.82 59.41 146.16 59.96 138.59 58.88 135.29 50.72 135.33 41.44 133.98 32.32 132.32 23.23 131.44 14.68 121.86 14.72 123.59 24.16 124.92 33.29 125.92 42.45 127.1 51.59 128.61 60.86 135.91 66.24 145.08 68.96 147.69 68.53 147.43 67.21 147.44 67.19 147.49 67.17 156.46 65.97 165.95 66.17 164.25 57.09 162.95 48.31"/>
        <polygon class="cls-4" points="187.5 20.15 196.98 17.33 196.52 13.7 187.06 15.76 177.67 17.81 177.75 20.85 187.5 20.15"/>
        <path class="cls-4" d="M208.47,54.78l-1.49-10.6-3.23-9.84-6.67-5.57-9.1-3.19-9.03,3.82-5.32,7.46-.28,9.52.04,7.85,4.98,6.22,8.08,1.12,7.94,1.91,4.45-.58-3.64,7.5-9.84,4.27-3.61.04-.08,7.7,4.79-.66,9.69-2.91,7.86-5.72,5.12-8.37-.66-9.97ZM193.59,55.95l-8.7-1.91-2.28-8.66.03-5.42,1.89-4.45,4.28-2.17,5.91,3.51,3.68,8.23,1.3,9.81-6.11,1.05Z"/>
      </g>
    </g>
  </g>
</svg>